<svg xmlns="http://www.w3.org/2000/svg" width="880" height="300" viewBox="0 0 880 300" fill="none" role="img" aria-label="GitHub analytics">
  <defs>
    <linearGradient id="bg" x1="0" y1="0" x2="1" y2="1">
      <stop offset="0%" stop-color="#000000"/><stop offset="100%" stop-color="#000000"/>
    </linearGradient>
    <linearGradient id="neon" x1="0" y1="0" x2="1" y2="0">
      <stop offset="0%" stop-color="#ffffff"/><stop offset="100%" stop-color="#9a9a9a"/>
    </linearGradient>
    <linearGradient id="glass" x1="0" y1="0" x2="0.35" y2="1">
      <stop offset="0%" stop-color="#ffffff" stop-opacity="0.07"/><stop offset="100%" stop-color="#ffffff" stop-opacity="0.014"/>
    </linearGradient>
    <linearGradient id="edge" x1="0" y1="0" x2="1" y2="1">
      <stop offset="0%" stop-color="#ffffff" stop-opacity="0.5"/><stop offset="50%" stop-color="#ffffff" stop-opacity="0.09"/><stop offset="100%" stop-color="#9a9a9a" stop-opacity="0.5"/>
    </linearGradient>
    <radialGradient id="gA" cx="50%" cy="50%" r="50%"><stop offset="0%" stop-color="#ffffff" stop-opacity="0.07"/><stop offset="100%" stop-color="#ffffff" stop-opacity="0"/></radialGradient>
    <radialGradient id="gB" cx="50%" cy="50%" r="50%"><stop offset="0%" stop-color="#ffffff" stop-opacity="0.05"/><stop offset="100%" stop-color="#ffffff" stop-opacity="0"/></radialGradient>
    <pattern id="grid" width="34" height="34" patternUnits="userSpaceOnUse"><path d="M34 0H0V34" fill="none" stroke="#ffffff" stroke-opacity="0.045"/></pattern>
    <linearGradient id="spark" x1="0" y1="0" x2="0" y2="1">
      <stop offset="0%" stop-color="#ffffff" stop-opacity="0.34"/><stop offset="100%" stop-color="#ffffff" stop-opacity="0"/>
    </linearGradient>
    <clipPath id="frame"><rect width="880" height="300" rx="20"/></clipPath>
  </defs>
  <g clip-path="url(#frame)">
    <rect width="880" height="300" fill="url(#bg)"/>
    <rect width="880" height="300" fill="url(#grid)"/>
    <ellipse cx="60" cy="0" rx="260" ry="120" fill="url(#gA)"/>
    <ellipse cx="820" cy="300" rx="260" ry="130" fill="url(#gB)"/>
    <g font-family="&apos;JetBrains Mono&apos;,&apos;Fira Code&apos;,&apos;IBM Plex Mono&apos;,&apos;Cascadia Mono&apos;,&apos;SF Mono&apos;,ui-monospace,SFMono-Regular,Menlo,Consolas,&apos;DejaVu Sans Mono&apos;,&apos;Courier New&apos;,monospace">
      <g>
        <rect x="24" y="24" width="160" height="100" rx="14" fill="url(#glass)" stroke="#ffffff" stroke-opacity="0.13"/>
        <text x="40" y="46" font-size="8.5" fill="#4d4d4d" letter-spacing="1.6">CONTRIBUTIONS</text>
        <text x="40" y="82" font-size="26" font-weight="700" fill="#ffffff" letter-spacing="0.5">502</text>
        <text x="40" y="102" font-size="8" fill="#6e6e6e" letter-spacing="1.2">PAST 12 MONTHS</text>
        <rect x="40" y="110" width="0" height="2" rx="1" fill="#ffffff" opacity="0.5"><animate attributeName="width" values="0;128" dur="1.2s" begin="0.0s" fill="freeze" calcMode="spline" keySplines="0.2 0 0.1 1"/></rect>
      </g>
      <g>
        <rect x="192" y="24" width="160" height="100" rx="14" fill="url(#glass)" stroke="#ffffff" stroke-opacity="0.13"/>
        <text x="208" y="46" font-size="8.5" fill="#4d4d4d" letter-spacing="1.6">CURRENT STREAK</text>
        <text x="208" y="82" font-size="26" font-weight="700" fill="#ffffff" letter-spacing="0.5">0</text>
        <text x="208" y="102" font-size="8" fill="#6e6e6e" letter-spacing="1.2">DAYS</text>
        <rect x="208" y="110" width="0" height="2" rx="1" fill="#ffffff" opacity="0.5"><animate attributeName="width" values="0;128" dur="1.2s" begin="0.15s" fill="freeze" calcMode="spline" keySplines="0.2 0 0.1 1"/></rect>
      </g>
      <g>
        <rect x="360" y="24" width="160" height="100" rx="14" fill="url(#glass)" stroke="#ffffff" stroke-opacity="0.13"/>
        <text x="376" y="46" font-size="8.5" fill="#4d4d4d" letter-spacing="1.6">LONGEST STREAK</text>
        <text x="376" y="82" font-size="26" font-weight="700" fill="#ffffff" letter-spacing="0.5">9</text>
        <text x="376" y="102" font-size="8" fill="#6e6e6e" letter-spacing="1.2">DAYS</text>
        <rect x="376" y="110" width="0" height="2" rx="1" fill="#ffffff" opacity="0.5"><animate attributeName="width" values="0;128" dur="1.2s" begin="0.3s" fill="freeze" calcMode="spline" keySplines="0.2 0 0.1 1"/></rect>
      </g>
      <g>
        <rect x="528" y="24" width="160" height="100" rx="14" fill="url(#glass)" stroke="#ffffff" stroke-opacity="0.13"/>
        <text x="544" y="46" font-size="8.5" fill="#4d4d4d" letter-spacing="1.6">ACTIVE DAYS</text>
        <text x="544" y="82" font-size="26" font-weight="700" fill="#ffffff" letter-spacing="0.5">38</text>
        <text x="544" y="102" font-size="8" fill="#6e6e6e" letter-spacing="1.2">WITH AT LEAST ONE</text>
        <rect x="544" y="110" width="0" height="2" rx="1" fill="#ffffff" opacity="0.5"><animate attributeName="width" values="0;128" dur="1.2s" begin="0.45s" fill="freeze" calcMode="spline" keySplines="0.2 0 0.1 1"/></rect>
      </g>
      <g>
        <rect x="696" y="24" width="160" height="100" rx="14" fill="url(#glass)" stroke="#ffffff" stroke-opacity="0.13"/>
        <text x="712" y="46" font-size="8.5" fill="#4d4d4d" letter-spacing="1.6">BEST DAY</text>
        <text x="712" y="82" font-size="26" font-weight="700" fill="#ffffff" letter-spacing="0.5">89</text>
        <text x="712" y="102" font-size="8" fill="#6e6e6e" letter-spacing="1.2">IN A SINGLE DAY</text>
        <rect x="712" y="110" width="0" height="2" rx="1" fill="#ffffff" opacity="0.5"><animate attributeName="width" values="0;128" dur="1.2s" begin="0.6s" fill="freeze" calcMode="spline" keySplines="0.2 0 0.1 1"/></rect>
      </g>
    </g>
    <rect x="24" y="140" width="832" height="136" rx="14" fill="url(#glass)" stroke="#ffffff" stroke-opacity="0.13"/>
    <g font-family="&apos;JetBrains Mono&apos;,&apos;Fira Code&apos;,&apos;IBM Plex Mono&apos;,&apos;Cascadia Mono&apos;,&apos;SF Mono&apos;,ui-monospace,SFMono-Regular,Menlo,Consolas,&apos;DejaVu Sans Mono&apos;,&apos;Courier New&apos;,monospace">
      <text x="42" y="164" font-size="8.5" fill="#4d4d4d" letter-spacing="1.8">LAST 90 DAYS</text>
      <text x="838" y="164" text-anchor="end" font-size="8.5" fill="#6e6e6e" letter-spacing="1.2">PEAK 12 IN A DAY</text>
    </g>
    <path d="M42 176.0H838" stroke="#ffffff" stroke-opacity="0.06"/>
    <path d="M42 213.0H838" stroke="#ffffff" stroke-opacity="0.06"/>
    <path d="M42 250.0H838" stroke="#ffffff" stroke-opacity="0.06"/>
    <path d="M42.0 250.0 L50.9 250.0 L59.9 250.0 L68.8 250.0 L77.8 250.0 L86.7 250.0 L95.7 250.0 L104.6 250.0 L113.6 250.0 L122.5 250.0 L131.4 250.0 L140.4 250.0 L149.3 250.0 L158.3 250.0 L167.2 250.0 L176.2 250.0 L185.1 250.0 L194.0 250.0 L203.0 250.0 L211.9 250.0 L220.9 250.0 L229.8 250.0 L238.8 250.0 L247.7 250.0 L256.7 250.0 L265.6 250.0 L274.5 250.0 L283.5 250.0 L292.4 250.0 L301.4 250.0 L310.3 250.0 L319.3 250.0 L328.2 250.0 L337.1 250.0 L346.1 250.0 L355.0 250.0 L364.0 250.0 L372.9 250.0 L381.9 250.0 L390.8 250.0 L399.8 250.0 L408.7 250.0 L417.6 250.0 L426.6 250.0 L435.5 250.0 L444.5 250.0 L453.4 250.0 L462.4 243.8 L471.3 250.0 L480.2 250.0 L489.2 250.0 L498.1 250.0 L507.1 250.0 L516.0 237.7 L525.0 250.0 L533.9 250.0 L542.9 250.0 L551.8 250.0 L560.7 219.2 L569.7 250.0 L578.6 225.3 L587.6 250.0 L596.5 237.7 L605.5 250.0 L614.4 250.0 L623.3 250.0 L632.3 237.7 L641.2 243.8 L650.2 250.0 L659.1 250.0 L668.1 231.5 L677.0 219.2 L686.0 250.0 L694.9 250.0 L703.8 243.8 L712.8 225.3 L721.7 250.0 L730.7 225.3 L739.6 176.0 L748.6 243.8 L757.5 243.8 L766.4 200.7 L775.4 243.8 L784.3 225.3 L793.3 194.5 L802.2 237.7 L811.2 250.0 L820.1 243.8 L829.1 250.0 L838.0 250.0 L838.0 250 L42.0 250 Z" fill="url(#spark)"/>
    <path d="M42.0 250.0 L50.9 250.0 L59.9 250.0 L68.8 250.0 L77.8 250.0 L86.7 250.0 L95.7 250.0 L104.6 250.0 L113.6 250.0 L122.5 250.0 L131.4 250.0 L140.4 250.0 L149.3 250.0 L158.3 250.0 L167.2 250.0 L176.2 250.0 L185.1 250.0 L194.0 250.0 L203.0 250.0 L211.9 250.0 L220.9 250.0 L229.8 250.0 L238.8 250.0 L247.7 250.0 L256.7 250.0 L265.6 250.0 L274.5 250.0 L283.5 250.0 L292.4 250.0 L301.4 250.0 L310.3 250.0 L319.3 250.0 L328.2 250.0 L337.1 250.0 L346.1 250.0 L355.0 250.0 L364.0 250.0 L372.9 250.0 L381.9 250.0 L390.8 250.0 L399.8 250.0 L408.7 250.0 L417.6 250.0 L426.6 250.0 L435.5 250.0 L444.5 250.0 L453.4 250.0 L462.4 243.8 L471.3 250.0 L480.2 250.0 L489.2 250.0 L498.1 250.0 L507.1 250.0 L516.0 237.7 L525.0 250.0 L533.9 250.0 L542.9 250.0 L551.8 250.0 L560.7 219.2 L569.7 250.0 L578.6 225.3 L587.6 250.0 L596.5 237.7 L605.5 250.0 L614.4 250.0 L623.3 250.0 L632.3 237.7 L641.2 243.8 L650.2 250.0 L659.1 250.0 L668.1 231.5 L677.0 219.2 L686.0 250.0 L694.9 250.0 L703.8 243.8 L712.8 225.3 L721.7 250.0 L730.7 225.3 L739.6 176.0 L748.6 243.8 L757.5 243.8 L766.4 200.7 L775.4 243.8 L784.3 225.3 L793.3 194.5 L802.2 237.7 L811.2 250.0 L820.1 243.8 L829.1 250.0 L838.0 250.0" fill="none" stroke="#ffffff" stroke-width="1.6" stroke-linejoin="round" stroke-linecap="round"/>
    <circle cx="739.6" cy="176.0" r="3" fill="#ffffff"/>
    <circle cx="739.6" cy="176.0" r="3" fill="none" stroke="#ffffff"><animate attributeName="r" values="3;12" dur="2.2s" repeatCount="indefinite"/><animate attributeName="stroke-opacity" values="0.8;0" dur="2.2s" repeatCount="indefinite"/></circle>
    <g font-family="&apos;JetBrains Mono&apos;,&apos;Fira Code&apos;,&apos;IBM Plex Mono&apos;,&apos;Cascadia Mono&apos;,&apos;SF Mono&apos;,ui-monospace,SFMono-Regular,Menlo,Consolas,&apos;DejaVu Sans Mono&apos;,&apos;Courier New&apos;,monospace" font-size="8" fill="#4d4d4d">
      <text x="42" y="266">2026-05-20</text>
      <text x="838" y="266" text-anchor="end">2026-08-17</text>
    </g>
    <rect x="0.5" y="0.5" width="879" height="299" rx="20" fill="none" stroke="url(#edge)" stroke-width="1"/>
  </g>
</svg>