<svg xmlns="http://www.w3.org/2000/svg" xmlns:xlink="http://www.w3.org/1999/xlink" viewBox="0 0 115.88 34" width="115.88" height="34" role="img" aria-label="HackAgent" preserveAspectRatio="xMidYMid meet">
<title>HackAgent</title>
<defs>
  <linearGradient id="bgGrad" x1="0" y1="0" x2="0.4" y2="1">
    <stop offset="0" stop-color="#0C0F1B"/>
    <stop offset="0.55" stop-color="#0B0D16"/>
    <stop offset="1" stop-color="#06070E"/>
  </linearGradient>
  <linearGradient id="redGrad" x1="0" y1="0" x2="1" y2="1">
    <stop offset="0" stop-color="#E0475A"/>
    <stop offset="1" stop-color="#B5303F"/>
  </linearGradient>
  <linearGradient id="navyGrad" x1="0" y1="0" x2="1" y2="1">
    <stop offset="0" stop-color="#4C63B6"/>
    <stop offset="1" stop-color="#172143"/>
  </linearGradient>
  <linearGradient id="edgeGrad" x1="0" y1="0" x2="1" y2="0">
    <stop offset="0" stop-color="#B5303F" stop-opacity="0.9"/>
    <stop offset="0.5" stop-color="#33406B" stop-opacity="0.55"/>
    <stop offset="1" stop-color="#172143" stop-opacity="0.9"/>
  </linearGradient>
  <pattern id="halftone" width="6" height="6" patternUnits="userSpaceOnUse">
    <circle cx="1.5" cy="1.5" r="0.75" fill="#FFFFFF" fill-opacity="0.035"/>
    <circle cx="4.5" cy="4.5" r="0.75" fill="#FFFFFF" fill-opacity="0.02"/>
  </pattern>
  <filter id="softGlow" x="-40%" y="-40%" width="180%" height="180%">
    <feGaussianBlur stdDeviation="3.2" result="b"/>
    <feMerge><feMergeNode in="b"/><feMergeNode in="SourceGraphic"/></feMerge>
  </filter>
  <filter id="tinyGlow" x="-60%" y="-60%" width="220%" height="220%">
    <feGaussianBlur stdDeviation="1.6" result="b"/>
    <feMerge><feMergeNode in="b"/><feMergeNode in="SourceGraphic"/></feMerge>
  </filter></defs>
<style>
  text{font-family:'Segoe UI', 'Helvetica Neue', 'DejaVu Sans', Arial, sans-serif;dominant-baseline:middle}
  .d{font-family:'Trebuchet MS', 'Verdana', 'DejaVu Sans', sans-serif;font-weight:700;letter-spacing:0.5px}
  .mono{font-family:'SFMono-Regular', 'DejaVu Sans Mono', Menlo, Consolas, monospace}
  .t{fill:#ECE7E4}
  .dim{fill:#9AA3BE}
  .faint{fill:#5C6684}
  .red{fill:#E0475A}
  @media (prefers-reduced-motion: reduce){*{animation:none !important}}
  @keyframes badgeGlow{0%,100%{opacity:.55}50%{opacity:1}}
  .glow{animation:badgeGlow 3.4s ease-in-out infinite}
  </style>
  <rect x="0.7" y="0.7" width="114.48" height="32.6" rx="8" fill="#151B31" stroke="#232B47" stroke-width="1.4"/>
  <path d="M8.7 0.7H107.88" stroke="#4C63B6" stroke-width="2" opacity="0.9"/>
  <g class="glow"><path d="M113.48 2.4L113.48 21.4M113.48 2.4L107.61 20.47M113.48 2.4L102.31 17.77M113.48 2.4L98.11 13.57M113.48 2.4L95.41 8.27M113.48 2.4L94.48 2.4M113.48 7.72Q112.76 6.92 111.84 7.46M111.84 7.46Q111.4 6.48 110.35 6.7M110.35 6.7Q110.24 5.64 109.18 5.53M109.18 5.53Q109.4 4.48 108.42 4.04M108.42 4.04Q108.96 3.12 108.16 2.4M113.48 11.9Q112.2 10.47 110.54 11.44M110.54 11.44Q109.77 9.68 107.9 10.09M107.9 10.09Q107.7 8.18 105.79 7.98M105.79 7.98Q106.2 6.11 104.44 5.34M104.44 5.34Q105.41 3.68 103.98 2.4M113.48 16.08Q111.64 14.02 109.25 15.41M109.25 15.41Q108.14 12.88 105.44 13.47M105.44 13.47Q105.16 10.72 102.41 10.44M102.41 10.44Q103 7.74 100.47 6.63M100.47 6.63Q101.86 4.24 99.8 2.4M113.48 21.4Q110.92 18.54 107.61 20.47M107.61 20.47Q106.06 16.96 102.31 17.77M102.31 17.77Q101.93 13.95 98.11 13.57M98.11 13.57Q98.92 9.82 95.41 8.27M95.41 8.27Q97.34 4.96 94.48 2.4" fill="none" stroke="#4C63B6" stroke-width="1" opacity="0.3" stroke-linecap="round"/></g>
  <g transform="translate(22.5 17) scale(0.7083)">
    <path d="M-5.5 -5.5V5.5" fill="none" stroke="#4C63B6" stroke-width="1.9" stroke-linecap="round" stroke-linejoin="round" />
    <path d="M5.5 -3.2V-1C5.5 3.4 1.5 3 -5.5 4" fill="none" stroke="#4C63B6" stroke-width="1.9" stroke-linecap="round" stroke-linejoin="round" />
    <path d="M-5.5 -9.6a3 3 0 1 1 0 6 3 3 0 0 1 0-6Z" fill="#4C63B6"/>
    <path d="M-5.5 3.6a3 3 0 1 1 0 6 3 3 0 0 1 0-6Z" fill="#4C63B6"/>
    <path d="M5.5 -9.6a3 3 0 1 1 0 6 3 3 0 0 1 0-6Z" fill="#4C63B6"/></g>
  <text x="40" y="17.5" font-size="12.5" class="t">HackAgent</text>
</svg>