<svg xmlns="http://www.w3.org/2000/svg" xmlns:xlink="http://www.w3.org/1999/xlink" viewBox="0 0 129.63 34" width="129.63" height="34" role="img" aria-label="TechRush-26" preserveAspectRatio="xMidYMid meet">
<title>TechRush-26</title>
<defs>
  <linearGradient id="bgGrad" x1="0" y1="0" x2="0.4" y2="1">
    <stop offset="0" stop-color="#0C0F1B"/>
    <stop offset="0.55" stop-color="#0B0D16"/>
    <stop offset="1" stop-color="#06070E"/>
  </linearGradient>
  <linearGradient id="redGrad" x1="0" y1="0" x2="1" y2="1">
    <stop offset="0" stop-color="#E0475A"/>
    <stop offset="1" stop-color="#B5303F"/>
  </linearGradient>
  <linearGradient id="navyGrad" x1="0" y1="0" x2="1" y2="1">
    <stop offset="0" stop-color="#4C63B6"/>
    <stop offset="1" stop-color="#172143"/>
  </linearGradient>
  <linearGradient id="edgeGrad" x1="0" y1="0" x2="1" y2="0">
    <stop offset="0" stop-color="#B5303F" stop-opacity="0.9"/>
    <stop offset="0.5" stop-color="#33406B" stop-opacity="0.55"/>
    <stop offset="1" stop-color="#172143" stop-opacity="0.9"/>
  </linearGradient>
  <pattern id="halftone" width="6" height="6" patternUnits="userSpaceOnUse">
    <circle cx="1.5" cy="1.5" r="0.75" fill="#FFFFFF" fill-opacity="0.035"/>
    <circle cx="4.5" cy="4.5" r="0.75" fill="#FFFFFF" fill-opacity="0.02"/>
  </pattern>
  <filter id="softGlow" x="-40%" y="-40%" width="180%" height="180%">
    <feGaussianBlur stdDeviation="3.2" result="b"/>
    <feMerge><feMergeNode in="b"/><feMergeNode in="SourceGraphic"/></feMerge>
  </filter>
  <filter id="tinyGlow" x="-60%" y="-60%" width="220%" height="220%">
    <feGaussianBlur stdDeviation="1.6" result="b"/>
    <feMerge><feMergeNode in="b"/><feMergeNode in="SourceGraphic"/></feMerge>
  </filter></defs>
<style>
  text{font-family:'Segoe UI', 'Helvetica Neue', 'DejaVu Sans', Arial, sans-serif;dominant-baseline:middle}
  .d{font-family:'Trebuchet MS', 'Verdana', 'DejaVu Sans', sans-serif;font-weight:700;letter-spacing:0.5px}
  .mono{font-family:'SFMono-Regular', 'DejaVu Sans Mono', Menlo, Consolas, monospace}
  .t{fill:#ECE7E4}
  .dim{fill:#9AA3BE}
  .faint{fill:#5C6684}
  .red{fill:#E0475A}
  @media (prefers-reduced-motion: reduce){*{animation:none !important}}
  @keyframes badgeGlow{0%,100%{opacity:.55}50%{opacity:1}}
  .glow{animation:badgeGlow 3.4s ease-in-out infinite}
  </style>
  <rect x="0.7" y="0.7" width="128.23" height="32.6" rx="8" fill="#151B31" stroke="#232B47" stroke-width="1.4"/>
  <path d="M8.7 0.7H121.63" stroke="#4C63B6" stroke-width="2" opacity="0.9"/>
  <g class="glow"><path d="M127.23 2.4L127.23 21.4M127.23 2.4L121.36 20.47M127.23 2.4L116.06 17.77M127.23 2.4L111.86 13.57M127.23 2.4L109.16 8.27M127.23 2.4L108.23 2.4M127.23 7.72Q126.51 6.92 125.59 7.46M125.59 7.46Q125.15 6.48 124.1 6.7M124.1 6.7Q123.99 5.64 122.93 5.53M122.93 5.53Q123.15 4.48 122.17 4.04M122.17 4.04Q122.71 3.12 121.91 2.4M127.23 11.9Q125.95 10.47 124.29 11.44M124.29 11.44Q123.52 9.68 121.65 10.09M121.65 10.09Q121.45 8.18 119.54 7.98M119.54 7.98Q119.95 6.11 118.19 5.34M118.19 5.34Q119.16 3.68 117.73 2.4M127.23 16.08Q125.39 14.02 123 15.41M123 15.41Q121.89 12.88 119.19 13.47M119.19 13.47Q118.91 10.72 116.16 10.44M116.16 10.44Q116.75 7.74 114.22 6.63M114.22 6.63Q115.61 4.24 113.55 2.4M127.23 21.4Q124.67 18.54 121.36 20.47M121.36 20.47Q119.81 16.96 116.06 17.77M116.06 17.77Q115.68 13.95 111.86 13.57M111.86 13.57Q112.67 9.82 109.16 8.27M109.16 8.27Q111.09 4.96 108.23 2.4" fill="none" stroke="#4C63B6" stroke-width="1" opacity="0.3" stroke-linecap="round"/></g>
  <g transform="translate(22.5 17) scale(0.7083)">
    <path d="M-5.5 -5.5V5.5" fill="none" stroke="#4C63B6" stroke-width="1.9" stroke-linecap="round" stroke-linejoin="round" />
    <path d="M5.5 -3.2V-1C5.5 3.4 1.5 3 -5.5 4" fill="none" stroke="#4C63B6" stroke-width="1.9" stroke-linecap="round" stroke-linejoin="round" />
    <path d="M-5.5 -9.6a3 3 0 1 1 0 6 3 3 0 0 1 0-6Z" fill="#4C63B6"/>
    <path d="M-5.5 3.6a3 3 0 1 1 0 6 3 3 0 0 1 0-6Z" fill="#4C63B6"/>
    <path d="M5.5 -9.6a3 3 0 1 1 0 6 3 3 0 0 1 0-6Z" fill="#4C63B6"/></g>
  <text x="40" y="17.5" font-size="12.5" class="t">TechRush-26</text>
</svg>